<?xml version="1.0" standalone="no"?>
<!DOCTYPE svg PUBLIC "-//W3C//DTD SVG 20010904//EN"
 "http://www.w3.org/TR/2001/REC-SVG-20010904/DTD/svg10.dtd">
<svg version="1.0" xmlns="http://www.w3.org/2000/svg"
 width="700.000000pt" height="700.000000pt" viewBox="0 0 700.000000 700.000000"
 preserveAspectRatio="xMidYMid meet">
<metadata>
Created by potrace 1.11, written by Peter Selinger 2001-2013
</metadata>
<g transform="translate(0.000000,700.000000) scale(0.100000,-0.100000)"
fill="#000000" stroke="none">
<path d="M3358 5835 c-2 -1 -37 -5 -78 -9 -83 -7 -119 -12 -200 -27 -30 -6
-68 -13 -85 -16 -70 -12 -274 -76 -378 -119 -111 -45 -277 -129 -329 -165 -14
-11 -29 -19 -32 -19 -12 0 -191 -132 -271 -201 -388 -328 -663 -795 -770
-1308 -8 -40 -17 -92 -20 -115 -3 -22 -9 -72 -15 -111 -9 -69 -7 -456 3 -505
3 -14 11 -59 17 -100 95 -595 421 -1131 905 -1490 168 -125 336 -219 515 -291
115 -46 117 -46 240 -82 78 -22 111 -30 180 -43 14 -2 49 -9 78 -15 30 -6 70
-13 90 -16 66 -9 500 -11 539 -3 21 4 58 11 83 14 157 19 417 90 560 153 321
143 555 304 782 538 81 84 227 265 228 282 0 6 4 13 9 15 20 7 153 242 214
378 89 198 166 494 185 710 13 160 8 386 -13 560 -5 36 -46 227 -59 275 -2 6
-6 24 -10 40 -5 17 -24 73 -43 125 -101 279 -249 535 -428 740 -39 45 -200
206 -246 247 -127 110 -352 256 -519 336 -207 99 -469 176 -685 202 -22 3 -51
7 -65 10 -25 6 -377 15 -382 10z m250 -432 c44 -32 85 -99 96 -156 7 -36 11
-299 11 -768 l0 -713 30 -33 c16 -18 42 -54 56 -80 24 -44 40 -56 195 -147 93
-54 194 -113 225 -130 281 -158 547 -317 575 -344 123 -119 89 -291 -65 -332
-85 -22 -126 -8 -332 112 -79 46 -151 87 -159 91 -8 4 -31 17 -50 28 -19 12
-125 73 -235 136 -110 64 -216 126 -236 138 -29 19 -39 21 -55 11 -41 -24
-119 -43 -168 -39 -179 12 -314 147 -317 318 -1 97 24 162 92 239 l43 49 1
726 c1 771 0 763 48 834 11 16 38 42 61 59 37 27 47 29 99 26 37 -3 67 -12 85
-25z"/>
</g>
</svg>
